# xmcd CD database file
#
# Track frame offsets:
#	150
#	20616
#	42886
#	60710
#	79740
#	99738
#	118914
#	141876
#	159663
#	174877
#	188638
#
# Disc length: 2850 seconds
#
# Revision: 0
# Processed by: cddbd v1.5.2PL0 Copyright (c) Steve Scherf et al.
# Submitted via: CDex 1.51
#
DISCID=8f0b200b
DTITLE=Cecilia Toussaint y Betsy Pecanins - A viva voz
DYEAR=2007
DGENRE=Blues
TTITLE0=El verdadero lugar
TTITLE1=Yo vengo a ofrecer mi corazón
TTITLE2=Soy mi voz
TTITLE3=Se dejaba llevar
TTITLE4=Te puedes ir
TTITLE5=Indulto
TTITLE6=Sueño con serpientes
TTITLE7=Y el amor
TTITLE8=La catrina
TTITLE9=Tejedoras
TTITLE10=Tras de ti
EXTD=YEAR: 2007
EXTT0=
EXTT1=
EXTT2=
EXTT3=
EXTT4=
EXTT5=
EXTT6=
EXTT7=
EXTT8=
EXTT9=
EXTT10=
PLAYORDER=
